<svg xmlns="http://www.w3.org/2000/svg" version="1.1" xmlns:xlink="http://www.w3.org/1999/xlink" xmlns:svgjs="http://svgjs.dev/svgjs" width="1000" height="1273" viewBox="0 0 1000 1273"><g transform="matrix(1,0,0,1,-0.24082092110239728,0.5153846153846189)"><svg viewBox="0 0 194 247" data-background-color="#ba3b0a" preserveAspectRatio="xMidYMid meet" height="1273" width="1000" xmlns="http://www.w3.org/2000/svg" xmlns:xlink="http://www.w3.org/1999/xlink"><g id="tight-bounds" transform="matrix(1,0,0,1,0.046719349485158546,-0.09999999999999432)"><svg viewBox="0 0 193.90656139182104 247.2" height="247.2" width="193.90656139182104"><g><svg viewBox="0 0 395.52 504.22504168094656" height="247.2" width="193.90656139182104"><g transform="matrix(1,0,0,1,0,252.7412805087122)"><svg viewBox="0 0 395.52 251.48376117223432" height="251.48376117223432" width="395.52"><g id="textblocktransform"><svg viewBox="0 0 395.52 251.48376117223432" height="251.48376117223432" width="395.52" id="textblock"><g><svg viewBox="0 0 395.52 173.9744329896907" height="173.9744329896907" width="395.52"><g transform="matrix(1,0,0,1,0,0)"><svg width="395.52" viewBox="1.9500000476837158 -35 101.84000396728516 44.79999923706055" height="173.9744329896907" data-palette-color="#ffffff"><path d="M8.3 0L1.95 0 1.95-34.05Q1.95-34.5 2.25-34.75 2.55-35 3.3-35L3.3-35 8.2-35Q10.65-35 12.5-34.27 14.35-33.55 15.55-31.8 16.75-30.05 17.35-26.98 17.95-23.9 17.95-19.3L17.95-19.3Q17.95-13.95 17.32-10.25 16.7-6.55 15.5-4.3 14.3-2.05 12.5-1.03 10.7 0 8.3 0L8.3 0ZM6.55-30.8L6.55-4.35 8.4-4.35Q9.25-4.35 10.03-4.88 10.8-5.4 11.4-6.98 12-8.55 12.38-11.63 12.75-14.7 12.75-19.75L12.75-19.75Q12.75-23.2 12.45-25.35 12.15-27.5 11.63-28.7 11.1-29.9 10.28-30.35 9.45-30.8 8.4-30.8L8.4-30.8 6.55-30.8ZM20.95 0L20.95 0 20.95-23.25Q22.35-24.25 24.1-24.88 25.85-25.5 27.8-25.5L27.8-25.5Q29.8-25.5 30.52-24.95 31.25-24.4 31.25-23.25L31.25-23.25Q31.25-22.85 31.15-22.1 31.05-21.35 30.75-20.6L30.75-20.6Q30.25-20.85 29.7-20.98 29.15-21.1 28.55-21.1L28.55-21.1Q27.85-21.1 27.07-20.85 26.3-20.6 25.65-20.1L25.65-20.1 25.6-0.9Q25.6-0.45 25.4-0.28 25.2-0.1 24.22-0.05 23.25 0 20.95 0ZM40.24 0.5L40.24 0.5Q38.84 0.5 37.57 0.28 36.3 0.05 35.27-0.73 34.24-1.5 33.67-3.05 33.09-4.6 33.09-7.15L33.09-7.15Q33.09-9.75 33.62-11.38 34.14-13 35.07-13.88 35.99-14.75 37.12-15.08 38.24-15.4 39.45-15.4L39.45-15.4Q40.2-15.4 41.22-15.25 42.24-15.1 42.95-14.7L42.95-14.7Q42.95-14.7 42.95-15.35 42.95-16 42.95-16.9 42.95-17.8 42.95-18.5L42.95-18.5Q42.95-19.5 42.64-20.05 42.34-20.6 41.74-20.85 41.14-21.1 40.2-21.1L40.2-21.1Q38.45-21.1 36.7-20.78 34.95-20.45 33.8-20L33.8-20Q33.39-20.7 33.27-21.4 33.14-22.1 33.14-22.6L33.14-22.6Q33.14-23 33.3-23.45 33.45-23.9 33.74-24.1L33.74-24.1Q34.34-24.5 36.39-25 38.45-25.5 41.34-25.5L41.34-25.5Q44.64-25.5 46.09-24.15 47.55-22.8 47.55-19.4L47.55-19.4 47.55-16.85Q47.55-14 47.52-11.08 47.49-8.15 47.45-5.6 47.39-3.05 47.3-1.15L47.3-1.15Q46.2-0.5 44.39 0 42.59 0.5 40.24 0.5ZM40.59-3.3L40.59-3.3Q41.3-3.3 41.92-3.53 42.55-3.75 42.8-4L42.8-4Q42.89-4.75 42.92-6.05 42.95-7.35 42.95-8.83 42.95-10.3 42.95-11.55L42.95-11.55Q42.55-11.8 41.97-11.9 41.39-12 40.95-12L40.95-12Q40.34-12 39.77-11.83 39.2-11.65 38.77-11.13 38.34-10.6 38.12-9.7 37.89-8.8 37.89-7.3L37.89-7.3Q37.89-6.1 38.07-5.33 38.24-4.55 38.59-4.1 38.95-3.65 39.47-3.48 39.99-3.3 40.59-3.3ZM58.19 9.8L58.19 9.8Q54.84 9.8 53.09 8.97 51.34 8.15 50.74 6.88 50.14 5.6 50.14 4.3L50.14 4.3Q50.14 2.55 51.14 1.07 52.14-0.4 53.72-1.5 55.29-2.6 57.04-3.15L57.04-3.15 58.64-1.8Q57.74-1.4 56.87-0.63 55.99 0.15 55.44 1.15 54.89 2.15 54.89 3.2L54.89 3.2Q54.89 3.95 55.19 4.5 55.49 5.05 56.32 5.35 57.14 5.65 58.64 5.65L58.64 5.65Q61.04 5.65 62.07 4.45 63.09 3.25 63.09 2.05L63.09 2.05Q63.09 1 62.67 0.4 62.24-0.2 61.02-0.53 59.79-0.85 57.44-1L57.44-1Q55.44-1.15 53.97-1.55 52.49-1.95 51.67-2.65 50.84-3.35 50.89-4.35L50.89-4.35Q50.94-5.15 51.42-6.03 51.89-6.9 52.82-7.83 53.74-8.75 55.04-9.65L55.04-9.65 57.79-8.75Q57.59-8.65 57.09-8.15 56.59-7.65 56.17-7.05 55.74-6.45 55.74-5.95L55.74-5.95Q55.74-5.3 57.29-5.08 58.84-4.85 61.14-4.5L61.14-4.5Q63.19-4.2 64.64-3.58 66.09-2.95 66.92-1.75 67.74-0.55 67.74 1.45L67.74 1.45Q67.74 3.7 66.74 5.6 65.74 7.5 63.67 8.65 61.59 9.8 58.19 9.8ZM58.79-7.7L58.79-7.7Q55.79-7.7 54.09-8.85 52.39-10 51.69-11.95 50.99-13.9 50.99-16.3L50.99-16.3Q50.99-19.7 52.04-21.7 53.09-23.7 54.97-24.6 56.84-25.5 59.34-25.5L59.34-25.5Q59.99-25.5 60.79-25.35 61.59-25.2 62.29-24.9L62.29-24.9 63.14-22.9Q64.84-22.2 65.87-20.58 66.89-18.95 66.89-16.25L66.89-16.25Q66.89-13.6 66.07-11.68 65.24-9.75 63.47-8.72 61.69-7.7 58.79-7.7ZM59.04-11.15L59.04-11.15Q60.14-11.15 60.87-11.78 61.59-12.4 61.94-13.8 62.29-15.2 62.29-17.4L62.29-17.4Q62.29-20 61.52-21.1 60.74-22.2 59.19-22.2L59.19-22.2Q58.24-22.2 57.47-21.65 56.69-21.1 56.27-19.85 55.84-18.6 55.84-16.45L55.84-16.45Q55.84-14.7 56.09-13.5 56.34-12.3 57.02-11.73 57.69-11.15 59.04-11.15ZM66.79-21.15L66.79-21.15Q66.04-21.15 64.94-21.45 63.84-21.75 62.74-22.15 61.64-22.55 60.94-22.83 60.24-23.1 60.24-23.1L60.24-23.1 60.04-25.1 67.84-25.1Q67.99-24.75 68.14-24.2 68.29-23.65 68.29-22.9L68.29-22.9Q68.29-22 67.87-21.58 67.44-21.15 66.79-21.15ZM77.34 0.5L77.34 0.5Q75.39 0.5 73.92 0.03 72.44-0.45 71.44-1.8 70.44-3.15 69.97-5.73 69.49-8.3 69.49-12.5L69.49-12.5Q69.49-19.35 71.69-22.43 73.89-25.5 77.79-25.5L77.79-25.5Q80.44-25.5 82.17-24.43 83.89-23.35 84.72-20.55 85.54-17.75 85.54-12.65L85.54-12.65Q85.54-5.6 83.47-2.55 81.39 0.5 77.34 0.5ZM77.49-3.35L77.49-3.35Q78.39-3.35 79.07-4.05 79.74-4.75 80.17-6.75 80.59-8.75 80.59-12.6L80.59-12.6Q80.59-16.45 80.29-18.4 79.99-20.35 79.34-21 78.69-21.65 77.64-21.65L77.64-21.65Q76.69-21.65 75.97-20.95 75.24-20.25 74.84-18.25 74.44-16.25 74.44-12.45L74.44-12.45Q74.44-9.45 74.64-7.6 74.84-5.75 75.22-4.85 75.59-3.95 76.17-3.65 76.74-3.35 77.49-3.35ZM88.84 0L88.84 0 88.84-23.8Q89.79-24.25 91.11-24.63 92.44-25 93.91-25.25 95.39-25.5 96.69-25.5L96.69-25.5Q99.34-25.5 100.86-24.88 102.39-24.25 103.09-22.8 103.79-21.35 103.79-18.9L103.79-18.9 103.79-0.9Q103.79-0.45 103.56-0.28 103.34-0.1 102.36-0.05 101.39 0 99.09 0L99.09 0 99.09-17.5Q99.09-19.75 98.61-20.65 98.14-21.55 96.54-21.55L96.54-21.55Q95.84-21.55 94.96-21.35 94.09-21.15 93.39-20.75L93.39-20.75 93.39-0.9Q93.39-0.45 93.19-0.28 92.99-0.1 92.04-0.05 91.09 0 88.84 0Z" opacity="1" transform="matrix(1,0,0,1,0,0)" fill="#ffffff" class="undefined-text-0" data-fill-palette-color="primary" id="text-0"></path></svg></g></svg></g><g transform="matrix(1,0,0,1,75.54432,215.04562123216493)"><svg viewBox="0 0 244.43135999999998 36.43813994006939" height="36.43813994006939" width="244.43135999999998"><g transform="matrix(1,0,0,1,0,0)"><svg width="244.43135999999998" viewBox="1.8300000429153442 -41.33000183105469 365.6758728027344 54.51000213623047" height="36.43813994006939" data-palette-color="#ffffff"><path d="M13.79-0.32L13.79-0.32Q12.52 0.49 10.95 0.49 9.38 0.49 8.13-0.29L8.13-0.29Q6.88 0.49 5.82 0.49 4.76 0.49 4.08 0.31 3.39 0.12 2.88-0.2L2.88-0.2Q1.83-0.83 1.83-1.78L1.83-1.78Q1.83-2.27 2.1-2.64L2.1-2.64Q2.64-2.22 3.47-2.22L3.47-2.22Q5.64-2.22 6.47-4.08L6.47-4.08 6.47-16.02Q6.47-17.14 6.01-17.68L6.01-17.68Q5.27-18.58 3.49-19.46L3.49-19.46Q5.15-20.21 5.64-20.8L5.64-20.8Q6.47-21.75 6.47-22.95L6.47-22.95 6.47-33.25Q5.64-35.13 3.47-35.13L3.47-35.13Q2.64-35.13 2.1-34.72L2.1-34.72Q1.83-35.08 1.83-35.56 1.83-36.04 2.11-36.45 2.39-36.87 2.88-37.16L2.88-37.16Q4-37.84 5.46-37.84 6.91-37.84 8.13-37.04L8.13-37.04Q9.4-37.84 10.95-37.84 12.5-37.84 13.75-37.06L13.75-37.06Q16.16-38.09 19.2-38.09 22.24-38.09 24.46-37.38 26.68-36.67 28.47-35.4L28.47-35.4Q32.18-32.76 33.37-28.44L33.37-28.44Q33.86-26.76 35.69-25.68L35.69-25.68Q33.81-24.63 33.18-22.51 32.54-20.39 31.07-18.57 29.59-16.75 27.69-15.53L27.69-15.53Q23.8-13.04 19.43-13.04L19.43-13.04Q17.53-13.04 15.45-13.53L15.45-13.53 15.45-4.2Q16.11-2.78 18.16-2.34L18.16-2.34Q18.7-2.22 19.36-2.22 20.02-2.22 20.56-2.64L20.56-2.64Q20.83-2.27 20.83-1.79 20.83-1.32 20.47-0.9 20.12-0.49 19.53-0.2L19.53-0.2Q18.24 0.49 16.7 0.49 15.16 0.49 13.79-0.32ZM15.45-31.03L15.45-19.9Q15.45-18.24 16.67-17.24L16.67-17.24Q17.8-16.31 19.56-16.31L19.56-16.31Q22.24-16.31 23.44-18.36L23.44-18.36Q23.85-19.07 23.85-20.09L23.85-20.09 23.85-31.13Q23.85-32.89 22.51-33.89L22.51-33.89Q21.29-34.81 20.08-34.81 18.87-34.81 18.1-34.58 17.33-34.35 16.75-33.89L16.75-33.89Q15.45-32.86 15.45-31.03L15.45-31.03ZM25.44-17.38L25.44-17.38Q26-17.48 26.6-18.75 27.2-20.02 27.5-21.74 27.81-23.46 28.27-24.28 28.74-25.1 29.76-25.44L29.76-25.44Q28.08-26 27.64-28.43 27.2-30.86 26.6-32.01 26-33.15 25.44-33.25L25.44-33.25Q26.34-31.23 26.34-25.44L26.34-25.44Q26.34-21.58 25.95-19.63 25.56-17.68 25.44-17.38ZM8.81-9.64L8.81-6.47Q10.03-6.93 10.16-9.67L10.16-9.67Q10.3-12.4 10.3-17.24 10.3-22.07 10.29-23.67 10.28-25.27 10.25-26.25L10.25-26.25Q10.18-29.13 9.7-29.72 9.23-30.32 8.81-30.52L8.81-30.52Q8.81-22.02 8.52-20.85L8.52-20.85Q8.18-19.87 6.86-19.46L6.86-19.46Q8.33-18.95 8.52-18.21L8.52-18.21Q8.81-17.04 8.81-9.64L8.81-9.64ZM41.48-0.29L41.48-0.29Q40.35 0.49 38.91 0.49 37.47 0.49 36.83-0.18 36.18-0.85 36.18-1.46L36.18-1.46Q36.18-2.27 36.45-2.64L36.45-2.64Q36.98-2.22 37.81-2.22L37.81-2.22Q39.38-2.22 39.84-3.74L39.84-3.74 39.84-11.13Q39.84-12.26 39.4-12.79L39.4-12.79Q38.62-13.75 36.86-14.6L36.86-14.6Q39.84-15.97 39.84-18.8L39.84-18.8 39.84-21.36Q39.84-23.44 38.43-23.61L38.43-23.61Q38.01-23.66 37.38-23.66 36.74-23.66 36.2-23.24L36.2-23.24Q35.86-23.71 35.86-24.21 35.86-24.71 36.12-25.33 36.37-25.95 36.91-26.51L36.91-26.51Q38.18-27.83 39.88-27.83 41.57-27.83 42.7-27.29L42.7-27.29Q44.04-28.81 45.58-28.81L45.58-28.81Q47.97-28.81 47.97-26.17L47.97-26.17 47.97-22.83Q50.41-28.83 55.73-28.83L55.73-28.83Q58.13-28.83 59.62-27.37L59.62-27.37Q61.15-25.88 61.15-23.24L61.15-23.24 61.15-22.9Q61.15-22.73 61.11-22.2 61.06-21.68 61.14-21.14 61.23-20.61 61.42-20.26L61.42-20.26Q61.69-19.75 62.42-19.46L62.42-19.46Q62.25-18.8 61.63-18.27 61.01-17.75 60.25-17.75L60.25-17.75 59.79-17.75Q58.84-16.55 57.13-16.06L57.13-16.06Q56.64-15.92 56.06-15.92 55.49-15.92 55.06-16.17 54.64-16.43 54.59-16.72L54.59-16.72Q55.05-16.94 55.05-17.6L55.05-17.6 55.05-17.72Q54.86-17.68 54.71-17.68L54.71-17.68 54.47-17.68Q53.66-17.68 53.01-18.29 52.37-18.9 52.17-19.82L52.17-19.82Q53.49-19.78 54.47-20.8L54.47-20.8Q55.34-21.7 55.34-22.66L55.34-22.66Q55.34-24.9 53.39-24.9L53.39-24.9Q51.71-24.9 50-22.22L50-22.22Q48.39-19.75 47.97-17.11L47.97-17.11 47.97-3.91Q48.24-3.05 48.8-2.64 49.36-2.22 50.34-2.22 51.32-2.22 51.85-2.64L51.85-2.64Q52.12-2.27 52.12-1.56 52.12-0.85 51.47-0.18 50.83 0.49 49.3 0.49 47.78 0.49 46.38-0.34L46.38-0.34Q45.41 0.49 44.02 0.49 42.62 0.49 41.48-0.29ZM43.59-11.88Q43.6-12.7 43.61-13.26 43.63-13.82 43.63-14.16L43.63-14.16 43.63-14.82Q43.63-15.19 43.61-15.76 43.6-16.33 43.59-17.05 43.58-17.77 43.55-18.46L43.55-18.46Q43.41-21 43-21.72 42.6-22.44 42.19-22.71L42.19-22.71 42.19-21.12Q42.19-17.02 42-16.3 41.82-15.58 41.42-15.22 41.01-14.87 40.23-14.6L40.23-14.6Q41.7-14.09 41.89-13.35L41.89-13.35Q42.19-12.18 42.19-8.08L42.19-8.08 42.19-6.49Q43.31-7.23 43.45-9.47L43.45-9.47Q43.58-11.06 43.59-11.88ZM69.4-2.73Q67.87-4.3 66.97-6.45 66.08-8.59 65.89-10.13 65.69-11.67 65.56-12.11 65.42-12.55 65.11-12.94L65.11-12.94Q64.47-13.75 62.79-14.58L62.79-14.58Q64.91-15.53 65.5-17.63L65.5-17.63Q65.67-18.21 65.77-18.8L65.77-18.8Q66.4-23.17 69.99-26.11 73.58-29.05 78.36-29.05L78.36-29.05Q83.34-29.05 86.93-26.07L86.93-26.07Q90.42-23.17 91.06-18.8L91.06-18.8Q91.28-17.26 91.72-16.55L91.72-16.55Q92.55-15.26 94.04-14.58L94.04-14.58Q92.38-13.77 91.89-13.16L91.89-13.16Q91.23-12.3 91.06-11.13L91.06-11.13Q90.28-5.37 87.06-2.38 83.83 0.61 78.46 0.61L78.46 0.61Q72.7 0.61 69.4-2.73L69.4-2.73ZM82.56-19.51Q82.56-25.61 78.41-25.61 74.26-25.61 74.26-19.51L74.26-19.51 74.26-8.69Q74.26-2.83 78.39-2.83L78.39-2.83Q82.56-2.83 82.56-8.69L82.56-8.69 82.56-19.51ZM84.91-22.73L84.91-6.47Q86.13-6.93 86.25-9.67L86.25-9.67Q86.4-12.4 86.4-13.73 86.4-15.06 86.38-15.95 86.37-16.85 86.35-17.8L86.35-17.8Q86.25-21.36 85.79-21.95 85.32-22.53 84.91-22.73L84.91-22.73ZM70.28-6.47L70.28-6.47Q70.62-6.74 70.62-7.08L70.62-7.08Q70.62-7.62 70.41-8.45L70.41-8.45Q69.4-12.28 69.4-13.78 69.4-15.28 69.5-16.13 69.6-16.97 69.75-17.82L69.75-17.82Q70.06-19.48 70.41-20.75L70.41-20.75Q70.62-21.58 70.62-21.88L70.62-21.88Q70.62-22.46 70.28-22.73L70.28-22.73Q69.26-21.51 68.72-19.46 68.18-17.41 67.84-15.84L67.84-15.84Q67.72-15.19 66.4-14.58L66.4-14.58Q67.72-13.96 67.84-13.35L67.84-13.35Q68.75-9.23 69.33-8.11 69.92-6.98 70.28-6.47ZM100.48 0.95L100.48 0.95Q98.72-0.66 98.72-3.05L98.72-3.05Q98.72-6.62 102.95-8.91L102.95-8.91Q100.19-10.84 98.92-15.01L98.92-15.01Q98.5-16.31 98.09-16.77L98.09-16.77Q97.48-17.5 95.99-18.24L95.99-18.24Q97.21-18.8 97.86-19.68 98.5-20.56 98.98-21.97 99.46-23.39 100.32-24.68 101.19-25.98 102.56-26.95L102.56-26.95Q105.56-29.05 110.3-29.05L110.3-29.05Q111.81-29.05 113.44-28.74L113.44-28.74Q113.79-31.4 115.81-33.25L115.81-33.25Q117.81-35.13 120.5-35.13L120.5-35.13Q123.65-35.13 125.8-33.5L125.8-33.5Q126.97-32.62 128.14-32.84L128.14-32.84Q128.24-30.88 126.63-30.32L126.63-30.32Q126.36-27.03 123.77-27.03L123.77-27.03Q122.75-27.03 122.53-27.17L122.53-27.17Q122.89-27.49 122.89-27.99 122.89-28.49 122.48-28.86L122.48-28.86Q121.97-27.91 120.18-27.91L120.18-27.91Q119.21-27.91 118.64-28.83L118.64-28.83Q119.57-29.13 120.11-29.72 120.65-30.32 120.65-30.83L120.65-30.83Q120.65-32.18 119.23-32.18L119.23-32.18Q116.5-32.18 116.03-27.93L116.03-27.93Q120.48-26.03 121.7-21.95L121.7-21.95Q122.5-19.19 124.68-18.24L124.68-18.24Q122.77-17.29 122.16-16.11L122.16-16.11Q121.92-15.65 121.72-15.01L121.72-15.01Q120.4-10.86 117.6-8.9 114.79-6.93 110.37-6.93L110.37-6.93Q107.56-6.93 105.49-7.62L105.49-7.62Q104.68-7.1 104.68-6.48 104.68-5.86 104.92-5.43 105.17-5 105.8-4.66L105.8-4.66Q107.05-4 110.54-3.49L110.54-3.49Q112.13-3.17 113.81-5.54L113.81-5.54Q113.91-4.3 114.37-3.67 114.84-3.05 115.4-2.98L115.4-2.98Q122.14-1.98 124.11 1.42L124.11 1.42Q124.8 2.56 124.8 4.36 124.8 6.15 123.65 7.85 122.5 9.55 120.55 10.74L120.55 10.74Q116.5 13.18 110.59 13.18L110.59 13.18Q103.65 13.18 99.99 10.91L99.99 10.91Q96.84 8.94 96.84 5.86L96.84 5.86Q96.84 3.81 98.92 1.98L98.92 1.98Q99.6 1.39 100.48 0.95ZM108-11.38Q108.54-10.62 109.07-10.41 109.61-10.21 110.33-10.21 111.05-10.21 111.59-10.41 112.13-10.62 112.49-11.13L112.49-11.13Q113.2-12.13 113.2-14.5L113.2-14.5 113.2-21.26Q113.2-23.63 112.66-24.39 112.13-25.15 111.59-25.35 111.05-25.56 110.33-25.56 109.61-25.56 109.07-25.35 108.54-25.15 108.2-24.66L108.2-24.66Q107.46-23.63 107.46-21.26L107.46-21.26 107.46-14.5Q107.46-12.13 108-11.38ZM115.57-24.71L115.57-11.55Q116.69-11.94 116.86-13.96L116.86-13.96Q117.03-15.87 117.03-18.24L117.03-18.24Q117.03-21.9 116.84-22.92L116.84-22.92Q116.55-24.29 115.57-24.71L115.57-24.71ZM102.85-11.55L102.85-11.55Q103.34-11.91 103.34-12.4L103.34-12.4Q103.34-13.04 103.17-13.62L103.17-13.62Q102.51-15.87 102.51-18.24L102.51-18.24Q102.51-20.58 103.17-22.83L103.17-22.83Q103.34-23.41 103.34-23.75L103.34-23.75 103.34-24.34Q103.34-24.56 103.14-24.71L103.14-24.71Q102.14-23.49 101.69-21.92 101.24-20.36 100.97-19.17L100.97-19.17Q100.87-18.8 99.6-18.24L99.6-18.24Q100.9-17.6 100.97-17.29L100.97-17.29 101.46-15.23Q102.09-12.65 102.85-11.55ZM101.6-2.86L101.6-2.86Q101.38-2.64 101.38-2.22L101.38-2.22Q101.48 0.42 108.9 1.76L108.9 1.76Q109.76 1.95 110.12 3.61L110.12 3.61Q110.25 3.08 111.09 2.72 111.93 2.37 112.22 2.39L112.22 2.39Q115.91 2.83 117.2 3.22L117.2 3.22Q119.5 3.93 120.55 5.32L120.55 5.32Q120.84 4.98 120.84 4.44 120.84 3.91 120.31 3.36 119.77 2.81 118.55 2.39L118.55 2.39Q116.45 1.64 112.86 1.22 109.27 0.81 107.82 0.49 106.36 0.17 105.14-0.29L105.14-0.29Q102.48-1.34 101.6-2.86ZM102.92 2.51L102.92 2.51Q101.19 3.27 101.19 5.35L101.19 5.35Q101.19 7.01 103.7 8.35L103.7 8.35Q106.51 9.86 110.95 9.86L110.95 9.86Q116.42 9.86 118.06 7.98L118.06 7.98Q118.52 7.47 118.52 6.9 118.52 6.32 117.97 5.88 117.42 5.44 116.55 5.18L116.55 5.18Q115.25 4.74 112.47 4.42L112.47 4.42Q111.13 4.27 109.15 6.4L109.15 6.4Q109.15 5.03 108.7 4.42 108.24 3.81 107.81 3.76L107.81 3.76Q104.97 3.39 102.92 2.51ZM131.85-0.29L131.85-0.29Q130.73 0.49 129.29 0.49 127.85 0.49 127.2-0.18 126.55-0.85 126.55-1.46L126.55-1.46Q126.55-2.27 126.82-2.64L126.82-2.64Q127.36-2.22 128.19-2.22L128.19-2.22Q129.75-2.22 130.21-3.74L130.21-3.74 130.21-11.13Q130.21-12.26 129.78-12.79L129.78-12.79Q128.99-13.75 127.24-14.6L127.24-14.6Q130.21-15.97 130.21-18.8L130.21-18.8 130.21-21.36Q130.21-23.44 128.8-23.61L128.8-23.61Q128.38-23.66 127.75-23.66 127.11-23.66 126.58-23.24L126.58-23.24Q126.24-23.71 126.24-24.21 126.24-24.71 126.49-25.33 126.75-25.95 127.28-26.51L127.28-26.51Q128.55-27.83 130.25-27.83 131.95-27.83 133.07-27.29L133.07-27.29Q134.41-28.81 135.95-28.81L135.95-28.81Q138.34-28.81 138.34-26.17L138.34-26.17 138.34-22.83Q140.79-28.83 146.11-28.83L146.11-28.83Q148.5-28.83 149.99-27.37L149.99-27.37Q151.53-25.88 151.53-23.24L151.53-23.24 151.53-22.9Q151.53-22.73 151.48-22.2 151.43-21.68 151.52-21.14 151.6-20.61 151.8-20.26L151.8-20.26Q152.07-19.75 152.8-19.46L152.8-19.46Q152.63-18.8 152-18.27 151.38-17.75 150.62-17.75L150.62-17.75 150.16-17.75Q149.21-16.55 147.5-16.06L147.5-16.06Q147.01-15.92 146.44-15.92 145.86-15.92 145.44-16.17 145.01-16.43 144.96-16.72L144.96-16.72Q145.42-16.94 145.42-17.6L145.42-17.6 145.42-17.72Q145.23-17.68 145.08-17.68L145.08-17.68 144.84-17.68Q144.03-17.68 143.39-18.29 142.74-18.9 142.54-19.82L142.54-19.82Q143.86-19.78 144.84-20.8L144.84-20.8Q145.72-21.7 145.72-22.66L145.72-22.66Q145.72-24.9 143.76-24.9L143.76-24.9Q142.08-24.9 140.37-22.22L140.37-22.22Q138.76-19.75 138.34-17.11L138.34-17.11 138.34-3.91Q138.61-3.05 139.17-2.64 139.74-2.22 140.71-2.22 141.69-2.22 142.23-2.64L142.23-2.64Q142.49-2.27 142.49-1.56 142.49-0.85 141.85-0.18 141.2 0.49 139.68 0.49 138.15 0.49 136.76-0.34L136.76-0.34Q135.78 0.49 134.39 0.49 133 0.49 131.85-0.29ZM133.96-11.88Q133.97-12.7 133.99-13.26 134-13.82 134-14.16L134-14.16 134-14.82Q134-15.19 133.99-15.76 133.97-16.33 133.96-17.05 133.95-17.77 133.93-18.46L133.93-18.46Q133.78-21 133.38-21.72 132.97-22.44 132.56-22.71L132.56-22.71 132.56-21.12Q132.56-17.02 132.38-16.3 132.19-15.58 131.79-15.22 131.39-14.87 130.61-14.6L130.61-14.6Q132.07-14.09 132.27-13.35L132.27-13.35Q132.56-12.18 132.56-8.08L132.56-8.08 132.56-6.49Q133.68-7.23 133.83-9.47L133.83-9.47Q133.95-11.06 133.96-11.88ZM171.25-2.32L171.25-2.32Q169.03 0.61 164.59 0.61L164.59 0.61Q159.17 0.61 156.46-2.64L156.46-2.64Q155.29-4.03 154.85-5.74L154.85-5.74Q154.6-6.76 153.99-7.31 153.38-7.86 152.48-8.3L152.48-8.3Q154.24-9.11 154.99-11.33L154.99-11.33Q155.8-13.67 157.68-14.72L157.68-14.72Q159.7-15.82 162.15-15.88 164.59-15.94 165.76-16.04 166.93-16.14 167.83-16.36L167.83-16.36Q169.52-16.75 170.47-17.8L170.47-17.8 170.47-21.46Q170.47-23.88 169.48-25 168.49-26.12 166.48-26.12 164.47-26.12 163.5-25.38 162.54-24.63 162.54-23.39L162.54-23.39Q162.54-21.48 164.49-21.53L164.49-21.53Q164.1-19.63 162.44-19.63L162.44-19.63Q161.95-19.63 161.49-19.8L161.49-19.8 161.49-19.73Q161.49-19.09 162.07-18.92L162.07-18.92Q161.46-17.99 160.02-18.02 158.58-18.04 157.78-19.56L157.78-19.56Q157.41-19.46 156.93-19.46 156.46-19.46 155.88-19.78 155.31-20.09 154.97-20.65L154.97-20.65Q156.19-21.39 156.46-22.92L156.46-22.92Q156.75-24.8 159.46-26.73L159.46-26.73Q162.73-29.05 167.81-29.05L167.81-29.05Q176.23-29.05 178.09-23.88L178.09-23.88Q178.7-22.14 178.7-19.78L178.7-19.78 178.7-17.8Q178.7-16.6 179.3-15.84 179.89-15.09 181.34-14.6L181.34-14.6Q179.8-13.89 179.36-13.33L179.36-13.33Q178.7-12.48 178.7-11.38L178.7-11.38 178.7-4.05Q179.41-2.22 180.72-2.22L180.72-2.22Q181.55-2.22 182.09-2.64L182.09-2.64Q182.43-2.17 182.43-1.48 182.43-0.78 181.74-0.15 181.04 0.49 179.65 0.49 178.26 0.49 177.06-0.29L177.06-0.29Q176.01 0.49 175.2 0.49 174.38 0.49 173.78 0.33 173.18 0.17 172.67-0.17L172.67-0.17Q171.52-0.93 171.25-2.32ZM172.79-22.73L172.79-6.47Q174.21-7.03 174.28-11.87L174.28-11.87Q174.28-12.89 174.28-14.21 174.28-15.53 174.27-16.47 174.26-17.41 174.23-18.26L174.23-18.26Q174.13-21.34 173.67-21.94 173.21-22.53 172.79-22.73L172.79-22.73ZM163.78-8.2L163.78-8.2Q163.78-7.18 164-6.2 164.22-5.22 164.66-4.49L164.66-4.49Q165.64-2.95 167.42-2.95L167.42-2.95Q168.76-2.95 169.64-4.05L169.64-4.05Q170.47-5.13 170.47-6.81L170.47-6.81 170.47-14.77Q168.91-13.87 166.47-13.53L166.47-13.53Q163.78-13.11 163.78-8.2ZM160.12-2.71L160.12-2.71Q160.36-2.88 160.36-3.15L160.36-3.15Q160.36-3.52 160.02-4.17L160.02-4.17Q158.8-6.42 158.8-7.86 158.8-9.3 158.91-9.94 159.02-10.57 159.2-11.02 159.39-11.47 159.62-11.82 159.85-12.16 160.02-12.43L160.02-12.43Q160.34-12.99 160.34-13.2 160.34-13.4 160.12-13.55L160.12-13.55Q159.12-13.09 158.65-12.45L158.65-12.45Q157.82-11.33 157.43-9.55L157.43-9.55Q157.34-9.03 155.72-8.3L155.72-8.3Q157.29-7.59 157.43-7.06L157.43-7.06Q158.26-4.15 160.12-2.71ZM190.32-0.29L190.32-0.29Q189.19 0.49 187.75 0.49 186.31 0.49 185.67-0.18 185.02-0.85 185.02-1.46L185.02-1.46Q185.02-2.27 185.29-2.64L185.29-2.64Q185.82-2.22 186.65-2.22L186.65-2.22Q188.22-2.22 188.68-3.74L188.68-3.74 188.68-11.35Q188.68-12.43 188.22-12.92L188.22-12.92Q187.56-13.67 185.7-14.58L185.7-14.58Q187.41-15.36 187.88-15.82L187.88-15.82Q188.68-16.63 188.68-17.8L188.68-17.8 188.68-21.36Q188.68-23.44 187.27-23.61L187.27-23.61Q186.85-23.66 186.22-23.66 185.58-23.66 185.04-23.24L185.04-23.24Q184.7-23.71 184.7-24.21 184.7-24.71 184.96-25.33 185.21-25.95 185.73-26.51L185.73-26.51Q187.02-27.83 188.72-27.83 190.41-27.83 191.54-27.29L191.54-27.29Q192.88-28.81 194.42-28.81L194.42-28.81Q196.93-28.81 196.93-26.17L196.93-26.17 196.91-24.15Q198.96-27.42 202.62-28.47L202.62-28.47Q203.82-28.81 205.09-28.81L205.09-28.81Q207.97-28.81 209.87-27.42 211.78-26.03 212.61-23.46L212.61-23.46Q214.44-27.25 218.54-28.42L218.54-28.42Q219.88-28.81 221.58-28.81 223.28-28.81 224.78-28.16 226.28-27.51 227.33-26.32L227.33-26.32Q229.45-23.83 229.45-19.43L229.45-19.43 229.38-17.8Q229.38-16.63 229.89-16.11L229.89-16.11Q230.65-15.36 232.36-14.58L232.36-14.58Q230.5-13.67 230.06-13.18L230.06-13.18Q229.38-12.43 229.38-11.35L229.38-11.35 229.38-3.74Q229.84-2.22 231.41-2.22L231.41-2.22Q231.99-2.22 232.53-2.64L232.53-2.64Q232.68-2.44 232.86-2.26 233.04-2.08 233.04-1.46 233.04-0.85 232.39-0.18 231.75 0.49 230.34 0.49 228.94 0.49 227.74-0.29L227.74-0.29Q226.65 0.49 225.29 0.49 223.94 0.49 222.91-0.24L222.91-0.24Q221.96 0.49 220.77 0.49 219.59 0.49 218.88-0.12 218.17-0.73 218.17-1.88L218.17-1.88Q218.17-2.42 218.54-2.73L218.54-2.73Q219.1-2.29 219.66-2.29L219.66-2.29Q220.74-2.29 221.2-3.49L221.2-3.49 221.2-18.04Q221.2-23.78 217.03-23.78L217.03-23.78Q215.83-23.78 214.68-22.39L214.68-22.39Q213.53-21.02 213.19-19.07L213.19-19.07 213.12-3.49Q213.58-2.29 214.66-2.29L214.66-2.29Q215.22-2.29 215.78-2.73L215.78-2.73Q216.15-2.42 216.15-1.57 216.15-0.73 215.44-0.12 214.73 0.49 213.53 0.49 212.34 0.49 211.39-0.24L211.39-0.24Q210.34 0.49 209.01 0.49 207.68 0.49 206.65-0.24L206.65-0.24Q205.7 0.49 204.51 0.49 203.33 0.49 202.62-0.12 201.91-0.73 201.91-1.88L201.91-1.88Q201.91-2.42 202.28-2.73L202.28-2.73Q202.84-2.29 203.4-2.29L203.4-2.29Q204.48-2.29 204.94-3.49L204.94-3.49 204.94-18.04Q204.94-22.61 202.72-23.49L202.72-23.49Q202.01-23.78 201.16-23.78L201.16-23.78Q199.52-23.78 198.32-22.36L198.32-22.36Q197.2-21.04 196.91-19.04L196.91-19.04 196.86-3.49Q197.32-2.29 198.4-2.29L198.4-2.29Q198.96-2.29 199.52-2.73L199.52-2.73Q199.96-2.37 199.96-1.55 199.96-0.73 199.22-0.12 198.47 0.49 197.26 0.49 196.05 0.49 195.13-0.22L195.13-0.22Q194.15 0.49 192.81 0.49 191.46 0.49 190.32-0.29ZM222.81-22.73L222.81-22.73Q223.54-20.95 223.54-15.77L223.54-15.77 223.54-6.47Q224.77-6.93 224.89-9.67L224.89-9.67Q225.03-12.4 225.03-14.51 225.03-16.63 224.91-18.04 224.79-19.46 224.52-20.41L224.52-20.41Q224.03-22.12 222.81-22.73ZM206.55-22.73L206.55-22.73Q207.28-20.95 207.28-15.77L207.28-15.77 207.28-6.47Q208.51-6.93 208.63-9.67L208.63-9.67Q208.77-12.4 208.77-14.51 208.77-16.63 208.65-18.04 208.53-19.46 208.26-20.41L208.26-20.41Q207.77-22.12 206.55-22.73ZM191.03-8.06L191.03-6.47Q192.17-7.2 192.32-9.52L192.32-9.52Q192.42-11.28 192.42-12.67L192.42-12.67 192.42-15.77Q192.42-19.38 192.22-20.41L192.22-20.41Q191.88-22.17 191.03-22.73L191.03-22.73 191.03-21.14Q191.03-17.02 190.84-16.3 190.66-15.58 190.26-15.21 189.85-14.84 189.07-14.58L189.07-14.58Q190.54-14.06 190.73-13.35L190.73-13.35Q191.03-12.18 191.03-8.06L191.03-8.06ZM240.31-0.29L240.31-0.29Q239.19 0.49 237.75 0.49 236.31 0.49 235.66-0.18 235.02-0.85 235.02-1.46L235.02-1.46Q235.02-2.27 235.29-2.64L235.29-2.64Q235.82-2.22 236.65-2.22L236.65-2.22Q238.21-2.22 238.68-3.74L238.68-3.74 238.68-11.35Q238.68-12.43 238.21-12.92L238.21-12.92Q237.56-13.67 235.7-14.58L235.7-14.58Q237.41-15.36 237.87-15.82L237.87-15.82Q238.68-16.63 238.68-17.8L238.68-17.8 238.68-21.36Q238.68-23.44 237.26-23.61L237.26-23.61Q236.85-23.66 236.21-23.66 235.58-23.66 235.04-23.24L235.04-23.24Q234.7-23.71 234.7-24.21 234.7-24.71 234.96-25.33 235.21-25.95 235.72-26.51L235.72-26.51Q237.02-27.83 238.72-27.83 240.41-27.83 241.54-27.29L241.54-27.29Q242.88-28.81 244.42-28.81L244.42-28.81Q246.93-28.81 246.93-26.17L246.93-26.17 246.91-24.15Q248.96-27.42 252.62-28.47L252.62-28.47Q253.82-28.81 255.09-28.81L255.09-28.81Q257.97-28.81 259.87-27.42 261.77-26.03 262.6-23.46L262.6-23.46Q264.44-27.25 268.54-28.42L268.54-28.42Q269.88-28.81 271.58-28.81 273.27-28.81 274.77-28.16 276.28-27.51 277.33-26.32L277.33-26.32Q279.45-23.83 279.45-19.43L279.45-19.43 279.38-17.8Q279.38-16.63 279.89-16.11L279.89-16.11Q280.65-15.36 282.36-14.58L282.36-14.58Q280.5-13.67 280.06-13.18L280.06-13.18Q279.38-12.43 279.38-11.35L279.38-11.35 279.38-3.74Q279.84-2.22 281.4-2.22L281.4-2.22Q281.99-2.22 282.53-2.64L282.53-2.64Q282.67-2.44 282.86-2.26 283.04-2.08 283.04-1.46 283.04-0.85 282.39-0.18 281.75 0.49 280.34 0.49 278.94 0.49 277.74-0.29L277.74-0.29Q276.64 0.49 275.29 0.49 273.93 0.49 272.91-0.24L272.91-0.24Q271.96 0.49 270.77 0.49 269.59 0.49 268.88-0.12 268.17-0.73 268.17-1.88L268.17-1.88Q268.17-2.42 268.54-2.73L268.54-2.73Q269.1-2.29 269.66-2.29L269.66-2.29Q270.73-2.29 271.2-3.49L271.2-3.49 271.2-18.04Q271.2-23.78 267.02-23.78L267.02-23.78Q265.83-23.78 264.68-22.39L264.68-22.39Q263.53-21.02 263.19-19.07L263.19-19.07 263.12-3.49Q263.58-2.29 264.66-2.29L264.66-2.29Q265.22-2.29 265.78-2.73L265.78-2.73Q266.14-2.42 266.14-1.57 266.14-0.73 265.44-0.12 264.73 0.49 263.53 0.49 262.34 0.49 261.38-0.24L261.38-0.24Q260.33 0.49 259 0.49 257.67 0.49 256.65-0.24L256.65-0.24Q255.7 0.49 254.51 0.49 253.33 0.49 252.62-0.12 251.91-0.73 251.91-1.88L251.91-1.88Q251.91-2.42 252.28-2.73L252.28-2.73Q252.84-2.29 253.4-2.29L253.4-2.29Q254.47-2.29 254.94-3.49L254.94-3.49 254.94-18.04Q254.94-22.61 252.72-23.49L252.72-23.49Q252.01-23.78 251.15-23.78L251.15-23.78Q249.52-23.78 248.32-22.36L248.32-22.36Q247.2-21.04 246.91-19.04L246.91-19.04 246.86-3.49Q247.32-2.29 248.4-2.29L248.4-2.29Q248.96-2.29 249.52-2.73L249.52-2.73Q249.96-2.37 249.96-1.55 249.96-0.73 249.21-0.12 248.47 0.49 247.26 0.49 246.05 0.49 245.12-0.22L245.12-0.22Q244.15 0.49 242.8 0.49 241.46 0.49 240.31-0.29ZM272.81-22.73L272.81-22.73Q273.54-20.95 273.54-15.77L273.54-15.77 273.54-6.47Q274.76-6.93 274.88-9.67L274.88-9.67Q275.03-12.4 275.03-14.51 275.03-16.63 274.91-18.04 274.79-19.46 274.52-20.41L274.52-20.41Q274.03-22.12 272.81-22.73ZM256.55-22.73L256.55-22.73Q257.28-20.95 257.28-15.77L257.28-15.77 257.28-6.47Q258.5-6.93 258.63-9.67L258.63-9.67Q258.77-12.4 258.77-14.51 258.77-16.63 258.65-18.04 258.53-19.46 258.26-20.41L258.26-20.41Q257.77-22.12 256.55-22.73ZM241.02-8.06L241.02-6.47Q242.17-7.2 242.32-9.52L242.32-9.52Q242.41-11.28 242.41-12.67L242.41-12.67 242.41-15.77Q242.41-19.38 242.22-20.41L242.22-20.41Q241.88-22.17 241.02-22.73L241.02-22.73 241.02-21.14Q241.02-17.02 240.84-16.3 240.66-15.58 240.25-15.21 239.85-14.84 239.07-14.58L239.07-14.58Q240.53-14.06 240.73-13.35L240.73-13.35Q241.02-12.18 241.02-8.06L241.02-8.06ZM292.44-32.3L292.44-32.3Q291.19-32.3 290.03-32.96 288.87-33.62 288.26-34.72L288.26-34.72Q287.6-35.84 286.5-36.43L286.5-36.43Q286.16-36.6 285.72-36.79L285.72-36.79 286.55-37.3Q287.72-38.04 288.29-39.09 288.85-40.14 289.98-40.73 291.12-41.33 292.44-41.33L292.44-41.33Q295.17-41.33 296.39-39.04L296.39-39.04Q297.22-37.52 298.95-36.79L298.95-36.79Q298.59-36.57 298.23-36.4 297.88-36.23 297.56-36.01L297.56-36.01Q296.86-35.52 296.31-34.57 295.76-33.62 294.72-32.96 293.68-32.3 292.44-32.3ZM291.14-35.29Q291-35.55 290.91-35.9 290.82-36.25 290.82-37.16 290.82-38.06 291.75-39.45L291.75-39.45Q290.85-39.45 290.48-39.12 290.12-38.79 289.93-38.56 289.75-38.33 289.62-38.1 289.48-37.87 289.29-37.6L289.29-37.6Q288.82-36.94 288.53-36.79L288.53-36.79Q288.92-36.57 289.25-36.1 289.58-35.62 290.02-35.11L290.02-35.11Q290.68-34.3 291.75-34.3L291.75-34.3Q291.61-34.57 291.45-34.8 291.29-35.03 291.14-35.29ZM289.99-0.29L289.99-0.29Q288.87 0.49 287.44 0.49 286.02 0.49 285.32-0.15 284.62-0.78 284.62-1.37L284.62-1.37Q284.62-2.17 284.97-2.64L284.97-2.64Q285.5-2.22 286.55-2.22 287.6-2.22 288.36-3.59L288.36-3.59 288.36-11.38Q288.36-12.45 287.92-12.94L287.92-12.94Q287.21-13.67 285.38-14.58L285.38-14.58Q287.09-15.36 287.55-15.82L287.55-15.82Q288.36-16.63 288.36-17.8L288.36-17.8 288.36-21.36Q288.36-23.44 286.94-23.61L286.94-23.61Q286.53-23.66 285.89-23.66 285.26-23.66 284.72-23.24L284.72-23.24Q284.38-23.71 284.38-24.21 284.38-24.71 284.64-25.33 284.89-25.95 285.43-26.51L285.43-26.51Q286.7-27.83 288.36-27.83 290.02-27.83 291.36-27.25L291.36-27.25Q292.56-28.81 294.1-28.81L294.1-28.81Q296.61-28.81 296.61-26.17L296.61-26.17 296.61-17.8Q296.61-16.63 297.12-16.11L297.12-16.11Q297.88-15.36 299.59-14.58L299.59-14.58Q297.76-13.67 297.29-13.21L297.29-13.21Q296.61-12.45 296.61-11.38L296.61-11.38 296.61-3.52Q297.42-2.22 298.44-2.22 299.47-2.22 300-2.64L300-2.64Q300.35-2.17 300.35-1.48 300.35-0.78 299.65-0.15 298.95 0.49 297.56 0.49 296.17 0.49 294.98-0.29L294.98-0.29Q293.97 0.49 292.56 0.49 291.14 0.49 289.99-0.29ZM292.11-11.87Q292.12-12.7 292.13-13.26 292.14-13.82 292.14-14.16L292.14-14.16 292.14-14.82Q292.14-15.19 292.13-15.77 292.12-16.36 292.11-17.07 292.09-17.77 292.07-18.46L292.07-18.46Q291.97-20.14 291.83-20.78L291.83-20.78Q291.53-22.19 290.7-22.73L290.7-22.73 290.7-21.14Q290.7-17.02 290.52-16.3 290.34-15.58 289.93-15.22 289.53-14.87 288.75-14.6L288.75-14.6Q290.21-14.09 290.41-13.35L290.41-13.35Q290.7-12.18 290.7-8.06L290.7-8.06 290.7-6.47Q291.83-7.2 291.97-9.47L291.97-9.47Q292.09-11.04 292.11-11.87ZM307.55-0.29L307.55-0.29Q306.42 0.49 304.98 0.49 303.54 0.49 302.89-0.18 302.25-0.85 302.25-1.46L302.25-1.46Q302.25-2.27 302.52-2.64L302.52-2.64Q303.05-2.22 303.88-2.22L303.88-2.22Q305.45-2.22 305.91-3.74L305.91-3.74 305.91-11.33Q305.91-12.4 305.45-12.89L305.45-12.89Q304.74-13.7 302.93-14.58L302.93-14.58Q304.64-15.36 305.1-15.82L305.1-15.82Q305.91-16.63 305.91-17.8L305.91-17.8 305.91-21.36Q305.91-23.44 304.49-23.61L304.49-23.61Q304.08-23.66 303.44-23.66 302.81-23.66 302.27-23.24L302.27-23.24Q301.93-23.71 301.93-24.21 301.93-24.71 302.19-25.33 302.44-25.95 302.96-26.51L302.96-26.51Q304.25-27.83 305.95-27.83 307.64-27.83 308.77-27.29L308.77-27.29Q310.11-28.81 311.5-28.81 312.89-28.81 313.43-28.16 313.97-27.51 313.97-26.17L313.97-26.17 313.97-23.88Q315.24-26.15 317.43-27.48 319.63-28.81 322.1-28.81 324.56-28.81 326.06-28.16 327.57-27.51 328.54-26.32L328.54-26.32Q330.45-23.95 330.45-19.43L330.45-19.43 330.45-17.82Q330.45-16.65 330.96-16.14L330.96-16.14Q331.72-15.36 333.42-14.58L333.42-14.58Q331.59-13.67 331.13-13.21L331.13-13.21Q330.45-12.45 330.45-11.38L330.45-11.38 330.45-3.74Q330.91-2.22 332.47-2.22L332.47-2.22Q333.3-2.22 333.84-2.64L333.84-2.64Q334.11-2.27 334.11-1.56 334.11-0.85 333.46-0.18 332.81 0.49 331.47 0.49 330.13 0.49 329.03-0.27L329.03-0.27Q328.05 0.49 326.75 0.49 325.44 0.49 324.42-0.24L324.42-0.24Q323.34 0.49 322.12 0.49 320.9 0.49 320.19-0.12 319.48-0.73 319.48-1.88L319.48-1.88Q319.48-2.42 319.85-2.73L319.85-2.73Q320.41-2.29 320.97-2.29L320.97-2.29Q322.05-2.29 322.51-3.49L322.51-3.49 322.51-18.04Q322.51-22.78 320.19-23.54L320.19-23.54Q319.44-23.78 318.56-23.78 317.68-23.78 316.92-23.43 316.16-23.07 315.55-22.44L315.55-22.44Q314.21-21.02 313.97-19.07L313.97-19.07 313.97-3.49Q314.43-2.29 315.5-2.29L315.5-2.29Q316.07-2.29 316.63-2.73L316.63-2.73Q316.99-2.42 316.99-1.57 316.99-0.73 316.29-0.12 315.58 0.49 314.42 0.49 313.26 0.49 312.31-0.24L312.31-0.24Q311.38 0.49 310.04 0.49 308.69 0.49 307.55-0.29ZM324.86-15.77L324.86-6.47Q326.08-6.93 326.2-9.67L326.2-9.67Q326.34-12.4 326.34-14.82 326.34-17.24 326.15-18.81 325.95-20.39 325.59-21.28 325.22-22.17 324.72-22.57 324.22-22.97 323.63-23.27L323.63-23.27Q324.56-21.07 324.71-19.26 324.86-17.46 324.86-15.77L324.86-15.77ZM309.66-11.87Q309.67-12.67 309.68-13.22 309.69-13.77 309.69-14.11 309.69-14.45 309.69-14.81 309.69-15.16 309.68-15.75 309.67-16.33 309.66-17.04 309.65-17.75 309.6-18.43L309.6-18.43Q309.52-20.12 309.38-20.75L309.38-20.75Q309.08-22.17 308.25-22.71L308.25-22.71 308.25-21.12Q308.25-17.02 308.07-16.3 307.89-15.58 307.48-15.21 307.08-14.84 306.3-14.58L306.3-14.58Q307.77-14.06 307.96-13.35L307.96-13.35Q308.25-12.18 308.25-8.08L308.25-8.08 308.25-6.49Q309.38-7.23 309.55-9.47L309.55-9.47Q309.65-11.06 309.66-11.87ZM339.84 0.95L339.84 0.95Q338.09-0.66 338.09-3.05L338.09-3.05Q338.09-6.62 342.31-8.91L342.31-8.91Q339.55-10.84 338.28-15.01L338.28-15.01Q337.87-16.31 337.45-16.77L337.45-16.77Q336.84-17.5 335.35-18.24L335.35-18.24Q336.57-18.8 337.22-19.68 337.87-20.56 338.34-21.97 338.82-23.39 339.68-24.68 340.55-25.98 341.92-26.95L341.92-26.95Q344.92-29.05 349.66-29.05L349.66-29.05Q351.17-29.05 352.81-28.74L352.81-28.74Q353.15-31.4 355.18-33.25L355.18-33.25Q357.18-35.13 359.86-35.13L359.86-35.13Q363.01-35.13 365.16-33.5L365.16-33.5Q366.33-32.62 367.5-32.84L367.5-32.84Q367.6-30.88 365.99-30.32L365.99-30.32Q365.72-27.03 363.13-27.03L363.13-27.03Q362.11-27.03 361.89-27.17L361.89-27.17Q362.26-27.49 362.26-27.99 362.26-28.49 361.84-28.86L361.84-28.86Q361.33-27.91 359.55-27.91L359.55-27.91Q358.57-27.91 358.01-28.83L358.01-28.83Q358.93-29.13 359.47-29.72 360.01-30.32 360.01-30.83L360.01-30.83Q360.01-32.18 358.59-32.18L358.59-32.18Q355.86-32.18 355.39-27.93L355.39-27.93Q359.84-26.03 361.06-21.95L361.06-21.95Q361.86-19.19 364.04-18.24L364.04-18.24Q362.13-17.29 361.52-16.11L361.52-16.11Q361.28-15.65 361.08-15.01L361.08-15.01Q359.77-10.86 356.96-8.9 354.15-6.93 349.73-6.93L349.73-6.93Q346.92-6.93 344.85-7.62L344.85-7.62Q344.04-7.1 344.04-6.48 344.04-5.86 344.29-5.43 344.53-5 345.17-4.66L345.17-4.66Q346.41-4 349.9-3.49L349.9-3.49Q351.49-3.17 353.17-5.54L353.17-5.54Q353.27-4.3 353.73-3.67 354.2-3.05 354.76-2.98L354.76-2.98Q361.5-1.98 363.48 1.42L363.48 1.42Q364.16 2.56 364.16 4.36 364.16 6.15 363.01 7.85 361.86 9.55 359.91 10.74L359.91 10.74Q355.86 13.18 349.95 13.18L349.95 13.18Q343.02 13.18 339.35 10.91L339.35 10.91Q336.21 8.94 336.21 5.86L336.21 5.86Q336.21 3.81 338.28 1.98L338.28 1.98Q338.96 1.39 339.84 0.95ZM347.36-11.38Q347.9-10.62 348.44-10.41 348.97-10.21 349.69-10.21 350.41-10.21 350.95-10.41 351.49-10.62 351.85-11.13L351.85-11.13Q352.56-12.13 352.56-14.5L352.56-14.5 352.56-21.26Q352.56-23.63 352.03-24.39 351.49-25.15 350.95-25.35 350.41-25.56 349.69-25.56 348.97-25.56 348.44-25.35 347.9-25.15 347.56-24.66L347.56-24.66Q346.83-23.63 346.83-21.26L346.83-21.26 346.83-14.5Q346.83-12.13 347.36-11.38ZM354.93-24.71L354.93-11.55Q356.05-11.94 356.23-13.96L356.23-13.96Q356.4-15.87 356.4-18.24L356.4-18.24Q356.4-21.9 356.2-22.92L356.2-22.92Q355.91-24.29 354.93-24.71L354.93-24.71ZM342.21-11.55L342.21-11.55Q342.7-11.91 342.7-12.4L342.7-12.4Q342.7-13.04 342.53-13.62L342.53-13.62Q341.87-15.87 341.87-18.24L341.87-18.24Q341.87-20.58 342.53-22.83L342.53-22.83Q342.7-23.41 342.7-23.75L342.7-23.75 342.7-24.34Q342.7-24.56 342.5-24.71L342.5-24.71Q341.5-23.49 341.05-21.92 340.6-20.36 340.33-19.17L340.33-19.17Q340.23-18.8 338.96-18.24L338.96-18.24Q340.26-17.6 340.33-17.29L340.33-17.29 340.82-15.23Q341.45-12.65 342.21-11.55ZM340.97-2.86L340.97-2.86Q340.75-2.64 340.75-2.22L340.75-2.22Q340.84 0.42 348.27 1.76L348.27 1.76Q349.12 1.95 349.49 3.61L349.49 3.61Q349.61 3.08 350.45 2.72 351.29 2.37 351.59 2.39L351.59 2.39Q355.27 2.83 356.57 3.22L356.57 3.22Q358.86 3.93 359.91 5.32L359.91 5.32Q360.2 4.98 360.2 4.44 360.2 3.91 359.67 3.36 359.13 2.81 357.91 2.39L357.91 2.39Q355.81 1.64 352.22 1.22 348.63 0.81 347.18 0.49 345.73 0.17 344.51-0.29L344.51-0.29Q341.85-1.34 340.97-2.86ZM342.28 2.51L342.28 2.51Q340.55 3.27 340.55 5.35L340.55 5.35Q340.55 7.01 343.07 8.35L343.07 8.35Q345.87 9.86 350.32 9.86L350.32 9.86Q355.79 9.86 357.42 7.98L357.42 7.98Q357.89 7.47 357.89 6.9 357.89 6.32 357.34 5.88 356.79 5.44 355.91 5.18L355.91 5.18Q354.61 4.74 351.83 4.42L351.83 4.42Q350.49 4.27 348.51 6.4L348.51 6.4Q348.51 5.03 348.06 4.42 347.61 3.81 347.17 3.76L347.17 3.76Q344.34 3.39 342.28 2.51Z" opacity="1" transform="matrix(1,0,0,1,0,0)" fill="#ffffff" class="undefined-text-1" data-fill-palette-color="secondary" id="text-1"></path></svg></g></svg></g></svg></g></svg></g><g transform="matrix(1,0,0,1,75.54432000000001,0)"><svg viewBox="0 0 244.43135999999996 211.670092266238" height="211.670092266238" width="244.43135999999996"><g><svg xmlns="http://www.w3.org/2000/svg" xmlns:xlink="http://www.w3.org/1999/xlink" version="1.1" x="0" y="0" viewBox="7.640533924102783 13.31902027130127 84.7188949584961 73.36397552490234" enable-background="new 0 0 100 100" xml:space="preserve" height="211.670092266238" width="244.43135999999996" class="icon-icon-0" data-fill-palette-color="accent" id="icon-0"><path fill="#ffffff" d="M42.146 51.688L42.146 51.688c-1.837 0-3.45-1.239-3.926-3.013-0.109-0.409-0.213-1.01 0.162-1.499 0.252-0.329 0.638-0.495 1.146-0.495 0.254 0 0.523 0.038 0.81 0.078 0.316 0.046 0.646 0.093 0.974 0.093 0.23 0 0.431-0.023 0.611-0.073 0.501-0.134 0.959-0.492 1.363-0.809 0.464-0.364 0.901-0.708 1.443-0.708 0.455 0 1.058 0.227 1.348 1.307 0.58 2.165-0.711 4.397-2.877 4.978C42.854 51.641 42.499 51.688 42.146 51.688zM39.986 48.471c0.345 0.878 1.198 1.471 2.159 1.471l0 0c0.201 0 0.405-0.026 0.603-0.079 1.152-0.309 1.872-1.436 1.698-2.586-0.03 0.022-0.058 0.044-0.084 0.065-0.482 0.378-1.143 0.896-1.987 1.122-0.33 0.088-0.679 0.131-1.063 0.131-0.452 0-0.878-0.06-1.22-0.109C40.056 48.481 40.021 48.477 39.986 48.471z" data-fill-palette-color="accent"></path><path fill="#ffffff" d="M91.974 60.652c-0.677-0.455-8.723-5.858-17.324-11.495 0.021-0.03 0.047-0.055 0.064-0.088 1.337-2.463 4.766-5.159 6.813-6.77 0.515-0.404 0.921-0.723 1.214-0.976 0.347-0.298 0.992-0.852 0.579-1.556-0.456-0.775-1.274-0.432-2.512 0.086-4.657 1.949-9.186 5.913-10.097 6.734-1.899-1.235-3.771-2.444-5.552-3.581 0.059-0.059 0.11-0.125 0.151-0.201 2.555-4.706 8.993-9.77 12.84-12.794 0.91-0.715 1.695-1.332 2.229-1.791 0.608-0.522 1.367-1.174 0.915-1.943-0.514-0.874-1.588-0.426-3.727 0.471-8.6 3.598-16.979 10.964-18.562 12.395-2.674-1.637-4.688-2.792-5.527-3.108-1.424-0.536-2.286-1.172-2.428-1.789-0.132-0.572 0.352-1.231 0.779-1.684l0.091-0.095c4.187-4.443 13.325-10.331 27.162-17.5 0.355-0.185 0.54-0.586 0.447-0.976-0.092-0.389-0.438-0.666-0.837-0.671-5.85-0.066-13.926 3.231-19.672 6.017-6.686 3.242-13.871 7.551-19.221 11.528-2.979 2.214-6.117 5.15-9.229 8.388l0.021-13.92c0-0.442-0.331-0.815-0.77-0.867-0.439-0.051-0.85 0.233-0.951 0.664L23.77 46.504c-0.024 0.101-0.021 0.201-0.011 0.298-1.231 1.438-2.433 2.875-3.595 4.287l-1.623-8.372c-0.082-0.422-0.461-0.723-0.887-0.705-0.43 0.014-0.783 0.339-0.835 0.765l-1.785 14.661c-0.398 0.5-0.79 0.993-1.168 1.467-0.737 0.926-1.435 1.8-2.085 2.612-4.624 5.769-5.404 10.818-2.194 14.217 0.918 0.972 6.996 3.878 8.837 4.745 0.12 0.057 0.247 0.084 0.371 0.084 0.327 0 0.641-0.186 0.79-0.501 0.038-0.082 0.05-0.167 0.062-0.251 0.243-0.335 0.235-0.799-0.062-1.108-0.945-0.987-3.382-4.136-2.208-5.595 0.388-0.481 1.395-1.201 2.745-2.035 0.012 0.011 0.017 0.025 0.029 0.036l4.354 3.606c0.16 0.133 0.358 0.201 0.557 0.201 0.154 0 0.309-0.041 0.446-0.123 0.316-0.189 0.48-0.558 0.408-0.919l-1.087-5.469c1.066-0.569 2.159-1.136 3.22-1.673l2.69 2.142c0.157 0.126 0.35 0.19 0.543 0.19 0.131 0 0.261-0.029 0.383-0.088 0.302-0.147 0.492-0.456 0.489-0.792l-0.03-3.453c1.647-0.779 2.856-1.307 3.18-1.381 0.325-0.075 0.938-0.146 1.373 0.218 0.471 0.396 0.697 1.272 0.635 2.469-0.131 2.511-4.527 11.336-6.211 14.525-0.177 0.334-0.117 0.747 0.147 1.017 0.167 0.172 0.395 0.264 0.624 0.264 0.131 0 0.265-0.03 0.389-0.091 0.692-0.344 13.866-6.902 20.576-10.485l7.273 14.926c0.151 0.31 0.462 0.49 0.785 0.49 0.128 0 0.258-0.029 0.381-0.089 0.433-0.211 0.613-0.732 0.402-1.165l-1.531-3.142L71.45 71.651c0.352-0.33 0.368-0.882 0.038-1.233-0.33-0.35-0.882-0.367-1.233-0.037L59.347 80.643l-1.642-3.369 12.214-11.419c0.353-0.329 0.37-0.881 0.042-1.232-0.329-0.352-0.88-0.37-1.233-0.042L56.905 75.634l-2.533-5.198c0.91-0.5 1.606-0.901 1.989-1.154 1.87-1.237 3.887-4.763 4.025-8.521 0.106-2.916-0.941-5.312-3.03-6.926-0.381-0.295-0.929-0.225-1.223 0.157-0.295 0.38-0.225 0.929 0.156 1.223 2.053 1.587 2.413 3.857 2.354 5.481-0.113 3.056-1.77 6.154-3.245 7.131-0.41 0.271-1.212 0.728-2.278 1.308-0.105 0.008-0.212 0.032-0.312 0.082-0.122 0.06-0.218 0.147-0.297 0.248-4.926 2.646-14.26 7.341-18.644 9.535 1.849-3.666 5.055-10.349 5.186-12.87 0.094-1.808-0.328-3.119-1.255-3.896-0.753-0.631-1.778-0.838-2.887-0.581-0.995 0.229-5.593 2.43-9.264 4.341-3.756 1.957-8.476 4.589-9.628 6.022-0.721 0.894-1.247 2.532 0.331 5.253 0.078 0.135 0.16 0.265 0.242 0.394-2.825-1.388-5.352-2.726-5.739-3.125C9.06 72.637 8 69.024 13.143 62.608c0.65-0.812 1.349-1.689 2.087-2.617 6.744-8.473 16.935-21.278 25.611-27.728 8.152-6.06 23.111-14.587 33.382-16.709C62.462 21.862 54.542 27.141 50.65 31.27l-0.086 0.092c-1.309 1.382-1.383 2.542-1.214 3.274 0.29 1.258 1.438 2.249 3.515 3.03C56.056 38.867 79.206 54.174 91 62.099c0.399 0.269 0.942 0.163 1.211-0.237S92.373 60.92 91.974 60.652zM30.395 66.371l-0.627-0.499c0.21-0.104 0.417-0.206 0.62-0.305L30.395 66.371zM23.727 71.806l-2.02-1.674c0.485-0.28 0.993-0.566 1.518-0.855L23.727 71.806zM28.837 32.786l-0.013 8.174c0 0.042 0.018 0.077 0.023 0.117-0.906 0.977-1.809 1.969-2.7 2.977L28.837 32.786zM17.882 48.48l0.847 4.365c-0.553 0.68-1.094 1.348-1.622 2.005L17.882 48.48zM76.401 44.338c-1.284 1.215-2.477 2.549-3.202 3.871-0.323-0.211-0.646-0.422-0.968-0.632C72.979 46.925 74.509 45.644 76.401 44.338zM76.343 29.215c-3.993 3.149-9.999 8.034-12.563 12.758-0.022 0.041-0.024 0.085-0.039 0.128-1.119-0.71-2.183-1.38-3.184-2.002C62.586 38.311 69.293 32.633 76.343 29.215z" data-fill-palette-color="accent"></path></svg></g></svg></g><g></g></svg></g><defs></defs></svg><rect width="193.90656139182104" height="247.2" fill="none" stroke="none" visibility="hidden"></rect></g></svg></g></svg>